<svg width="180" height="140" viewBox="0 0 180 140" fill="white" xmlns="http://www.w3.org/2000/svg">
<g clip-path="url(#clip0_52_44069)">
<path d="M147.899 40.7999C145.499 40.4999 143.299 40.3999 141.199 39.8999C140.299 39.6999 139.299 39.0999 138.799 38.2999C136.899 35.3999 135.399 32.1999 133.299 29.3999C126.599 20.2999 117.399 14.9999 106.699 11.9999C103.499 11.0999 100.799 11.5999 98.4993 13.9999C96.1993 16.4999 95.7993 19.4999 97.0993 22.5999C100.899 31.4999 106.099 39.1999 114.099 44.8999C116.699 46.6999 119.299 48.3999 121.899 50.1999C121.099 52.4999 120.399 54.6999 119.699 56.9999C118.999 56.5999 118.299 56.2999 117.699 55.8999C108.199 50.4999 98.5993 45.0999 89.0993 39.4999C79.1993 33.6999 68.5993 30.3999 56.9993 29.9999C50.8993 29.7999 44.9993 30.8999 39.9993 34.5999C36.5993 37.0999 33.4993 40.1999 30.2993 43.0999C20.1993 36.0999 12.3993 35.6999 5.1993 42.0999C-0.400697 47.0999 -1.6007 56.5999 2.3993 63.8999C4.0993 67.0999 6.7993 69.2999 10.1993 70.5999C15.8993 72.9999 21.4993 72.4999 26.9993 69.3999C28.8993 75.1999 31.7993 80.0999 36.0993 84.0999C50.4993 97.2999 64.8993 110.5 79.3993 123.7C82.7993 126.8 86.6993 128.9 91.3993 129.3C92.3993 129.4 93.3993 129.5 94.3993 129.6C105.999 129.6 117.499 129.6 129.099 129.6C134.199 129.6 137.699 127.3 138.999 123.2C141.399 116.1 136.699 109.9 128.899 109.8C120.099 109.7 111.299 109.8 102.399 109.8C101.499 109.8 100.699 109.7 99.5993 109.7C99.5993 105.3 99.7993 101.3 99.4993 97.1999C99.1993 93.2999 98.8993 89.2999 97.5993 85.6999C93.9993 75.7999 86.4993 69.8999 76.3993 66.8999C73.3993 65.9999 70.2993 65.1999 67.3993 63.9999C64.9993 62.9999 64.1993 60.4999 65.0993 58.0999C65.9993 55.6999 68.0993 54.4999 70.6993 55.0999C73.6993 55.7999 76.6993 56.3999 79.5993 57.2999C95.2993 61.9999 105.299 72.0999 108.599 88.2999C109.399 92.1999 109.599 96.2999 110.099 100.5C112.399 99.1999 114.599 97.8999 116.799 96.6999C120.899 94.3999 124.799 91.0999 129.199 89.8999C133.599 88.6999 138.599 89.6999 143.399 89.5999C150.099 89.4999 156.899 89.7999 163.599 89.0999C170.799 88.3999 175.799 83.8999 178.199 77.1999C180.699 70.1999 179.599 63.5999 174.199 58.2999C169.699 53.8999 164.699 49.8999 159.599 46.1999C157.499 44.6999 157.299 43.1999 157.499 40.9999C158.899 25.6999 153.599 12.7999 143.199 1.7999C140.099 -1.5001 135.299 -0.500096 133.699 3.6999C132.599 6.7999 132.299 10.0999 131.499 13.3999C130.999 15.3999 131.699 16.5999 133.199 17.8999C139.899 24.2999 144.799 31.8999 147.899 40.7999ZM54.2993 114.6C50.6993 117 47.2993 119.2 43.9993 121.5C40.7993 123.8 39.5993 127.1 39.8993 130.8C40.5993 138.1 48.6993 141.8 55.3993 137.8C60.1993 134.9 64.6993 131.6 69.4993 128.3C64.3993 123.8 59.3993 119.3 54.2993 114.6Z" fill="white"/>
<path d="M147.9 40.7999C144.8 31.8999 140 24.2999 133.1 18.0999C131.7 16.7999 131 15.4999 131.4 13.5999C132.2 10.3999 132.5 6.99986 133.6 3.89986C135.2 -0.300145 140 -1.30015 143.1 1.99985C153.6 12.8999 158.8 25.8999 157.4 41.1999C157.2 43.3999 157.3 44.7999 159.5 46.3999C164.6 50.0999 169.6 54.0999 174.1 58.4999C179.4 63.6999 180.6 70.3999 178.1 77.3999C175.6 84.1999 170.7 88.5999 163.5 89.2999C156.8 89.9999 150.1 89.6999 143.3 89.7999C138.6 89.8999 133.6 88.8999 129.1 90.0999C124.7 91.2999 120.8 94.4999 116.7 96.8999C114.5 98.1999 112.3 99.3999 110 100.7C109.5 96.4999 109.4 92.3999 108.5 88.4999C105.1 72.2999 95.0997 62.1999 79.4997 57.4999C76.5997 56.5999 73.5997 55.8999 70.5997 55.2999C67.9997 54.6999 65.8997 55.9999 64.9997 58.2999C64.0997 60.6999 64.8997 63.0999 67.2997 64.1999C70.1997 65.3999 73.2997 66.2999 76.2997 67.0999C86.2997 69.9999 93.7997 75.8999 97.4997 85.8999C98.7997 89.4999 99.0997 93.4999 99.3997 97.3999C99.6997 101.4 99.4997 105.5 99.4997 109.9C100.5 110 101.4 110 102.3 110C111.1 110 119.9 109.9 128.8 110C136.7 110.1 141.3 116.2 138.9 123.4C137.5 127.5 134.1 129.8 129 129.8C117.4 129.8 105.9 129.8 94.2997 129.8C93.2997 129.8 92.2997 129.6 91.2997 129.5C86.5997 129.1 82.6997 126.9 79.2997 123.9C64.7997 110.6 50.3997 97.3999 35.9997 84.0999C31.6997 80.0999 28.7997 75.1999 26.8997 69.3999C21.4997 72.4999 15.8997 72.9999 10.0997 70.5999C6.79969 69.1999 4.09969 66.9999 2.29969 63.8999C-1.70031 56.5999 -0.500307 47.0999 5.09969 42.0999C12.2997 35.6999 20.0997 35.9999 30.1997 43.0999C33.4997 40.1999 36.4997 37.0999 39.8997 34.5999C44.8997 30.9999 50.7997 29.7999 56.8997 29.9999C68.3997 30.3999 79.0997 33.6999 89.0997 39.5999C98.5997 45.1999 108.1 50.4999 117.7 55.9999C118.3 56.3999 119 56.6999 119.7 57.0999C120.5 54.7999 121.2 52.5999 121.9 50.2999C119.3 48.4999 116.6 46.7999 114.1 44.9999C106.1 39.2999 100.8 31.5999 97.0997 22.6999C95.7997 19.5999 96.1997 16.5999 98.4997 14.0999C100.7 11.5999 103.4 11.1999 106.7 12.0999C117.5 15.0999 126.6 20.3999 133.3 29.4999C135.4 32.2999 136.9 35.4999 138.8 38.3999C139.3 39.0999 140.3 39.7999 141.2 39.9999C143.3 40.2999 145.4 40.4999 147.9 40.7999ZM159.5 64.6999C159.5 61.7999 157.3 59.6999 154.4 59.7999C151.5 59.8999 149.4 62.0999 149.5 64.8999C149.6 67.7999 151.7 69.8999 154.6 69.7999C157.5 69.7999 159.5 67.5999 159.5 64.6999Z" fill="white"/>
<path d="M54.2994 114.6C59.3994 119.3 64.3994 123.8 69.4994 128.4C64.6994 131.6 60.1994 135 55.3994 137.9C48.6994 141.9 40.5994 138.2 39.8994 130.9C39.4994 127.1 40.7994 123.8 43.9994 121.6C47.2994 119.2 50.6994 117 54.2994 114.6Z" fill="white"/>
</g>
<defs>
<clipPath id="clip0_52_44069">
<rect width="179.4" height="139.5" fill="white"/>
</clipPath>
</defs>
</svg>
