<svg width="882" height="172" viewBox="0 0 882 172" fill="none" xmlns="http://www.w3.org/2000/svg">
<path fill-rule="evenodd" clip-rule="evenodd" d="M37.325 0C35.1158 0 33.325 1.79085 33.325 3.99999V85.4358C58.773 93.0032 79.5131 111.48 90.1286 135.45H103.2C140.603 135.45 170.925 105.128 170.925 67.725C170.925 30.3215 140.603 0 103.2 0H37.325Z" fill="url(#paint0_linear_43_44005)"/>
<path fill-rule="evenodd" clip-rule="evenodd" d="M0 34.1001C0 31.891 1.80169 30.0943 4.00995 30.1565C78.6231 32.2573 138.701 92.8033 140.77 167.99C140.831 170.198 139.034 172 136.825 172H93.9244C91.7153 172 89.9334 170.205 89.8383 167.998C87.8187 121.135 50.5056 83.5277 4.00216 81.4773C1.79516 81.38 0 79.5984 0 77.3893V34.1001Z" fill="url(#paint1_linear_43_44005)"/>
<circle cx="25.8" cy="145.125" r="25.8" fill="#61DAFB"/>
<path d="M256.267 83.4718C256.469 77.2905 258.04 71.7678 260.979 66.9038C264.019 61.9385 267.971 58.0371 272.835 55.1998C277.8 52.3624 283.221 50.9438 289.099 50.9438C294.267 50.9438 298.168 51.7038 300.803 53.2238C303.539 54.7438 304.552 56.8211 303.843 59.4558C303.539 60.8744 302.88 61.8878 301.867 62.4958C300.955 63.1038 299.84 63.4078 298.523 63.4078C297.307 63.4078 295.888 63.3064 294.267 63.1038C288.288 62.3944 282.968 62.7998 278.307 64.3198C273.747 65.7384 270.099 68.1198 267.363 71.4638C264.627 74.8078 263.259 78.8105 263.259 83.4718H256.267ZM257.027 135C255 135 253.429 134.442 252.315 133.328C251.2 132.213 250.643 130.642 250.643 128.616V58.2398C250.643 56.2131 251.2 54.6425 252.315 53.5278C253.429 52.4131 255 51.8558 257.027 51.8558C259.053 51.8558 260.573 52.4131 261.587 53.5278C262.701 54.6425 263.259 56.2131 263.259 58.2398V128.616C263.259 130.642 262.701 132.213 261.587 133.328C260.573 134.442 259.053 135 257.027 135Z" fill="white"/>
<path d="M356.702 135.76C348.392 135.76 341.046 133.986 334.662 130.44C328.278 126.792 323.262 121.776 319.614 115.392C315.966 109.008 314.142 101.712 314.142 93.5038C314.142 85.1944 315.864 77.8985 319.31 71.6158C322.755 65.2318 327.467 60.2158 333.446 56.5678C339.526 52.9198 346.518 51.0958 354.422 51.0958C362.123 51.0958 368.811 52.8691 374.486 56.4158C380.262 59.8611 384.67 64.6744 387.71 70.8558C390.851 77.0371 392.422 84.0798 392.422 91.9838C392.422 93.7064 391.864 95.1251 390.75 96.2398C389.635 97.2531 388.216 97.7598 386.494 97.7598H322.958V87.2718H387.254L380.718 91.8318C380.819 86.2585 379.806 81.2424 377.678 76.7838C375.55 72.3251 372.51 68.8291 368.558 66.2958C364.606 63.7624 359.894 62.4958 354.422 62.4958C348.646 62.4958 343.579 63.8131 339.222 66.4478C334.966 69.0825 331.672 72.7811 329.342 77.5438C327.112 82.2051 325.998 87.5251 325.998 93.5038C325.998 99.4824 327.315 104.802 329.95 109.464C332.584 114.125 336.182 117.773 340.742 120.408C345.403 123.042 350.723 124.36 356.702 124.36C360.147 124.36 363.643 123.752 367.19 122.536C370.838 121.32 373.726 119.8 375.854 117.976C377.07 117.064 378.438 116.608 379.958 116.608C381.579 116.506 382.896 116.912 383.91 117.824C385.43 119.141 386.19 120.56 386.19 122.08C386.291 123.6 385.632 124.917 384.214 126.032C380.87 128.869 376.614 131.2 371.446 133.024C366.278 134.848 361.363 135.76 356.702 135.76Z" fill="white"/>
<path d="M448.309 135.76C440.608 135.76 433.717 133.936 427.637 130.288C421.557 126.538 416.744 121.472 413.197 115.088C409.65 108.704 407.877 101.509 407.877 93.5038C407.877 85.3971 409.701 78.1518 413.349 71.7678C417.098 65.3838 422.165 60.3678 428.549 56.7198C434.933 52.9704 442.128 51.0958 450.133 51.0958C458.037 51.0958 465.13 52.9704 471.413 56.7198C477.797 60.3678 482.813 65.3838 486.461 71.7678C490.21 78.1518 492.136 85.3971 492.237 93.5038L487.069 96.0878C487.069 103.586 485.346 110.325 481.901 116.304C478.557 122.282 473.946 127.045 468.069 130.592C462.293 134.037 455.706 135.76 448.309 135.76ZM450.133 124.208C455.808 124.208 460.824 122.89 465.181 120.256C469.64 117.52 473.136 113.821 475.669 109.16C478.304 104.498 479.621 99.2798 479.621 93.5038C479.621 87.6264 478.304 82.4078 475.669 77.8478C473.136 73.1865 469.64 69.4878 465.181 66.7518C460.824 64.0158 455.808 62.6478 450.133 62.6478C444.56 62.6478 439.493 64.0158 434.933 66.7518C430.474 69.4878 426.928 73.1865 424.293 77.8478C421.658 82.4078 420.341 87.6264 420.341 93.5038C420.341 99.2798 421.658 104.498 424.293 109.16C426.928 113.821 430.474 117.52 434.933 120.256C439.493 122.89 444.56 124.208 450.133 124.208ZM485.701 135C483.877 135 482.306 134.442 480.989 133.328C479.773 132.112 479.165 130.541 479.165 128.616V103.536L482.053 90.3118L492.237 93.5038V128.616C492.237 130.541 491.629 132.112 490.413 133.328C489.197 134.442 487.626 135 485.701 135Z" fill="white"/>
<path d="M555.284 135.76C547.279 135.76 540.135 133.936 533.852 130.288C527.569 126.538 522.604 121.472 518.956 115.088C515.409 108.704 513.636 101.509 513.636 93.5038C513.636 85.3971 515.358 78.1518 518.804 71.7678C522.351 65.3838 527.113 60.3678 533.092 56.7198C539.172 52.9704 546.164 51.0958 554.068 51.0958C560.148 51.0958 565.772 52.3118 570.94 54.7438C576.108 57.0744 580.668 60.6211 584.62 65.3838C585.836 66.8024 586.241 68.2718 585.836 69.7918C585.532 71.2105 584.62 72.4771 583.1 73.5918C581.884 74.4024 580.516 74.7065 578.996 74.5038C577.577 74.1998 576.26 73.3891 575.044 72.0718C569.47 65.7891 562.479 62.6478 554.068 62.6478C548.495 62.6478 543.58 63.9651 539.324 66.5998C535.169 69.2345 531.926 72.8825 529.596 77.5438C527.265 82.1038 526.1 87.4238 526.1 93.5038C526.1 99.3811 527.316 104.65 529.748 109.312C532.281 113.872 535.726 117.52 540.084 120.256C544.542 122.89 549.609 124.208 555.284 124.208C559.135 124.208 562.58 123.701 565.62 122.688C568.761 121.674 571.548 120.104 573.98 117.976C575.398 116.861 576.817 116.253 578.236 116.152C579.655 116.05 580.972 116.456 582.188 117.368C583.505 118.584 584.265 119.952 584.468 121.472C584.671 122.992 584.164 124.36 582.948 125.576C575.551 132.365 566.329 135.76 555.284 135.76Z" fill="white"/>
<path d="M643.547 135C638.278 135 633.566 133.733 629.411 131.2C625.256 128.666 621.963 125.17 619.531 120.712C617.2 116.253 616.035 111.237 616.035 105.664V31.7918C616.035 29.9678 616.592 28.4478 617.707 27.2318C618.923 26.0158 620.494 25.4078 622.419 25.4078C624.243 25.4078 625.763 26.0158 626.979 27.2318C628.195 28.4478 628.803 29.9678 628.803 31.7918V105.664C628.803 110.426 630.171 114.378 632.907 117.52C635.744 120.661 639.291 122.232 643.547 122.232H648.107C649.728 122.232 651.096 122.84 652.211 124.056C653.326 125.272 653.883 126.792 653.883 128.616C653.883 130.541 653.174 132.112 651.755 133.328C650.438 134.442 648.715 135 646.587 135H643.547ZM607.067 65.9918C605.344 65.9918 603.926 65.4851 602.811 64.4718C601.696 63.3571 601.139 62.0398 601.139 60.5198C601.139 58.8984 601.696 57.5811 602.811 56.5678C603.926 55.4531 605.344 54.8958 607.067 54.8958H644.611C646.334 54.8958 647.752 55.4531 648.867 56.5678C649.982 57.5811 650.539 58.8984 650.539 60.5198C650.539 62.0398 649.982 63.3571 648.867 64.4718C647.752 65.4851 646.334 65.9918 644.611 65.9918H607.067Z" fill="white"/>
<path d="M684.639 135C682.714 135 681.143 134.442 679.927 133.328C678.711 132.112 678.103 130.49 678.103 128.464V58.3918C678.103 56.3651 678.711 54.7944 679.927 53.6798C681.143 52.4638 682.714 51.8558 684.639 51.8558C686.565 51.8558 688.085 52.4638 689.199 53.6798C690.415 54.7944 691.023 56.3651 691.023 58.3918V128.464C691.023 130.49 690.415 132.112 689.199 133.328C688.085 134.442 686.565 135 684.639 135ZM684.487 36.8078C682.055 36.8078 679.978 35.9464 678.255 34.2238C676.533 32.3998 675.671 30.2718 675.671 27.8398C675.671 25.3064 676.533 23.2291 678.255 21.6078C680.079 19.9864 682.157 19.1758 684.487 19.1758C686.818 19.1758 688.845 19.9864 690.567 21.6078C692.391 23.2291 693.303 25.3064 693.303 27.8398C693.303 30.2718 692.442 32.3998 690.719 34.2238C688.997 35.9464 686.919 36.8078 684.487 36.8078Z" fill="white"/>
<path d="M751.819 135C749.184 135 747.208 133.581 745.891 130.744L712.603 60.2158C711.893 58.7971 711.792 57.3784 712.299 55.9598C712.907 54.5411 714.021 53.4264 715.643 52.6158C717.163 51.8051 718.632 51.7038 720.051 52.3118C721.571 52.8184 722.736 53.7811 723.547 55.1998L755.163 123.752H748.627L779.939 55.1998C780.547 53.6798 781.661 52.6664 783.283 52.1598C784.904 51.6531 786.475 51.7544 787.995 52.4638C789.616 53.2744 790.68 54.4398 791.187 55.9598C791.693 57.3784 791.643 58.7464 791.035 60.0638L758.051 130.744C756.733 133.581 754.656 135 751.819 135Z" fill="white"/>
<path d="M845.489 135.76C837.179 135.76 829.833 133.986 823.449 130.44C817.065 126.792 812.049 121.776 808.401 115.392C804.753 109.008 802.929 101.712 802.929 93.5038C802.929 85.1944 804.651 77.8985 808.097 71.6158C811.542 65.2318 816.254 60.2158 822.233 56.5678C828.313 52.9198 835.305 51.0958 843.209 51.0958C850.91 51.0958 857.598 52.8691 863.273 56.4158C869.049 59.8611 873.457 64.6744 876.497 70.8558C879.638 77.0371 881.209 84.0798 881.209 91.9838C881.209 93.7064 880.651 95.1251 879.537 96.2398C878.422 97.2531 877.003 97.7598 875.281 97.7598H811.745V87.2718H876.041L869.505 91.8318C869.606 86.2585 868.593 81.2424 866.465 76.7838C864.337 72.3251 861.297 68.8291 857.345 66.2958C853.393 63.7624 848.681 62.4958 843.209 62.4958C837.433 62.4958 832.366 63.8131 828.009 66.4478C823.753 69.0825 820.459 72.7811 818.129 77.5438C815.899 82.2051 814.785 87.5251 814.785 93.5038C814.785 99.4824 816.102 104.802 818.737 109.464C821.371 114.125 824.969 117.773 829.529 120.408C834.19 123.042 839.51 124.36 845.489 124.36C848.934 124.36 852.43 123.752 855.977 122.536C859.625 121.32 862.513 119.8 864.641 117.976C865.857 117.064 867.225 116.608 868.745 116.608C870.366 116.506 871.683 116.912 872.697 117.824C874.217 119.141 874.977 120.56 874.977 122.08C875.078 123.6 874.419 124.917 873.001 126.032C869.657 128.869 865.401 131.2 860.233 133.024C855.065 134.848 850.15 135.76 845.489 135.76Z" fill="white"/>
<defs>
<linearGradient id="paint0_linear_43_44005" x1="142.258" y1="36.4022" x2="61.8687" y2="148.043" gradientUnits="userSpaceOnUse">
<stop stop-color="#BD00FF"/>
<stop offset="1" stop-color="#000AFF"/>
</linearGradient>
<linearGradient id="paint1_linear_43_44005" x1="157.462" y1="172" x2="-7.0376" y2="37.0001" gradientUnits="userSpaceOnUse">
<stop stop-color="#FFB629"/>
<stop offset="1" stop-color="#FF6100"/>
</linearGradient>
</defs>
</svg>
