<svg width="882" height="172" viewBox="0 0 882 172" fill="none" xmlns="http://www.w3.org/2000/svg">
<path fill-rule="evenodd" clip-rule="evenodd" d="M37.3625 0C35.1534 0 33.3625 1.79085 33.3625 3.99999V85.4358C58.8106 93.0032 79.5507 111.48 90.1661 135.45H103.238C140.641 135.45 170.963 105.128 170.963 67.725C170.963 30.3215 140.641 0 103.238 0H37.3625Z" fill="url(#paint0_linear_42_44078)"/>
<path fill-rule="evenodd" clip-rule="evenodd" d="M0.0375977 34.1001C0.0375977 31.891 1.83929 30.0943 4.04755 30.1565C78.6607 32.2573 138.738 92.8033 140.807 167.99C140.868 170.198 139.072 172 136.863 172H93.962C91.7529 172 89.971 170.205 89.8759 167.998C87.8563 121.135 50.5432 83.5277 4.03976 81.4773C1.83276 81.38 0.0375977 79.5984 0.0375977 77.3893V34.1001Z" fill="url(#paint1_linear_42_44078)"/>
<circle cx="25.8376" cy="145.125" r="25.8" fill="#61DAFB"/>
<path d="M256.304 83.4718C256.507 77.2905 258.077 71.7678 261.016 66.9038C264.056 61.9385 268.008 58.0371 272.872 55.1998C277.837 52.3624 283.259 50.9438 289.136 50.9438C294.304 50.9438 298.205 51.7038 300.84 53.2238C303.576 54.7438 304.589 56.8211 303.88 59.4558C303.576 60.8744 302.917 61.8878 301.904 62.4958C300.992 63.1038 299.877 63.4078 298.56 63.4078C297.344 63.4078 295.925 63.3064 294.304 63.1038C288.325 62.3945 283.005 62.7998 278.344 64.3198C273.784 65.7384 270.136 68.1198 267.4 71.4638C264.664 74.8078 263.296 78.8105 263.296 83.4718H256.304ZM257.064 135C255.037 135 253.467 134.442 252.352 133.328C251.237 132.213 250.68 130.642 250.68 128.616V58.2398C250.68 56.2131 251.237 54.6425 252.352 53.5278C253.467 52.4131 255.037 51.8558 257.064 51.8558C259.091 51.8558 260.611 52.4131 261.624 53.5278C262.739 54.6425 263.296 56.2131 263.296 58.2398V128.616C263.296 130.642 262.739 132.213 261.624 133.328C260.611 134.442 259.091 135 257.064 135Z" fill="#1E1A30"/>
<path d="M356.739 135.76C348.43 135.76 341.083 133.986 334.699 130.44C328.315 126.792 323.299 121.776 319.651 115.392C316.003 109.008 314.179 101.712 314.179 93.5038C314.179 85.1945 315.902 77.8985 319.347 71.6158C322.792 65.2318 327.504 60.2158 333.483 56.5678C339.563 52.9198 346.555 51.0958 354.459 51.0958C362.16 51.0958 368.848 52.8691 374.523 56.4158C380.299 59.8611 384.707 64.6744 387.747 70.8558C390.888 77.0371 392.459 84.0798 392.459 91.9838C392.459 93.7065 391.902 95.1251 390.787 96.2398C389.672 97.2531 388.254 97.7598 386.531 97.7598H322.995V87.2718H387.291L380.755 91.8318C380.856 86.2585 379.843 81.2425 377.715 76.7838C375.587 72.3251 372.547 68.8291 368.595 66.2958C364.643 63.7625 359.931 62.4958 354.459 62.4958C348.683 62.4958 343.616 63.8131 339.259 66.4478C335.003 69.0825 331.71 72.7811 329.379 77.5438C327.15 82.2051 326.035 87.5251 326.035 93.5038C326.035 99.4825 327.352 104.802 329.987 109.464C332.622 114.125 336.219 117.773 340.779 120.408C345.44 123.042 350.76 124.36 356.739 124.36C360.184 124.36 363.68 123.752 367.227 122.536C370.875 121.32 373.763 119.8 375.891 117.976C377.107 117.064 378.475 116.608 379.995 116.608C381.616 116.506 382.934 116.912 383.947 117.824C385.467 119.141 386.227 120.56 386.227 122.08C386.328 123.6 385.67 124.917 384.251 126.032C380.907 128.869 376.651 131.2 371.483 133.024C366.315 134.848 361.4 135.76 356.739 135.76Z" fill="#1E1A30"/>
<path d="M448.346 135.76C440.645 135.76 433.754 133.936 427.674 130.288C421.594 126.538 416.781 121.472 413.234 115.088C409.688 108.704 407.914 101.509 407.914 93.5038C407.914 85.3971 409.738 78.1518 413.386 71.7678C417.136 65.3838 422.202 60.3678 428.586 56.7198C434.97 52.9704 442.165 51.0958 450.17 51.0958C458.074 51.0958 465.168 52.9704 471.45 56.7198C477.834 60.3678 482.85 65.3838 486.498 71.7678C490.248 78.1518 492.173 85.3971 492.274 93.5038L487.106 96.0878C487.106 103.586 485.384 110.325 481.938 116.304C478.594 122.282 473.984 127.045 468.106 130.592C462.33 134.037 455.744 135.76 448.346 135.76ZM450.17 124.208C455.845 124.208 460.861 122.89 465.218 120.256C469.677 117.52 473.173 113.821 475.706 109.16C478.341 104.498 479.658 99.2798 479.658 93.5038C479.658 87.6264 478.341 82.4078 475.706 77.8478C473.173 73.1865 469.677 69.4878 465.218 66.7518C460.861 64.0158 455.845 62.6478 450.17 62.6478C444.597 62.6478 439.53 64.0158 434.97 66.7518C430.512 69.4878 426.965 73.1865 424.33 77.8478C421.696 82.4078 420.378 87.6264 420.378 93.5038C420.378 99.2798 421.696 104.498 424.33 109.16C426.965 113.821 430.512 117.52 434.97 120.256C439.53 122.89 444.597 124.208 450.17 124.208ZM485.738 135C483.914 135 482.344 134.442 481.026 133.328C479.81 132.112 479.202 130.541 479.202 128.616V103.536L482.09 90.3118L492.274 93.5038V128.616C492.274 130.541 491.666 132.112 490.45 133.328C489.234 134.442 487.664 135 485.738 135Z" fill="#1E1A30"/>
<path d="M555.321 135.76C547.316 135.76 540.172 133.936 533.889 130.288C527.607 126.538 522.641 121.472 518.993 115.088C515.447 108.704 513.673 101.509 513.673 93.5038C513.673 85.3971 515.396 78.1518 518.841 71.7678C522.388 65.3838 527.151 60.3678 533.129 56.7198C539.209 52.9704 546.201 51.0958 554.105 51.0958C560.185 51.0958 565.809 52.3118 570.977 54.7438C576.145 57.0744 580.705 60.6211 584.657 65.3838C585.873 66.8024 586.279 68.2718 585.873 69.7918C585.569 71.2105 584.657 72.4771 583.137 73.5918C581.921 74.4024 580.553 74.7065 579.033 74.5038C577.615 74.1998 576.297 73.3891 575.081 72.0718C569.508 65.7891 562.516 62.6478 554.105 62.6478C548.532 62.6478 543.617 63.9651 539.361 66.5998C535.207 69.2345 531.964 72.8825 529.633 77.5438C527.303 82.1038 526.137 87.4238 526.137 93.5038C526.137 99.3811 527.353 104.65 529.785 109.312C532.319 113.872 535.764 117.52 540.121 120.256C544.58 122.89 549.647 124.208 555.321 124.208C559.172 124.208 562.617 123.701 565.657 122.688C568.799 121.674 571.585 120.104 574.017 117.976C575.436 116.861 576.855 116.253 578.273 116.152C579.692 116.05 581.009 116.456 582.225 117.368C583.543 118.584 584.303 119.952 584.505 121.472C584.708 122.992 584.201 124.36 582.985 125.576C575.588 132.365 566.367 135.76 555.321 135.76Z" fill="#1E1A30"/>
<path d="M643.585 135C638.315 135 633.603 133.733 629.449 131.2C625.294 128.666 622.001 125.17 619.569 120.712C617.238 116.253 616.073 111.237 616.073 105.664V31.7918C616.073 29.9678 616.63 28.4478 617.745 27.2318C618.961 26.0158 620.531 25.4078 622.457 25.4078C624.281 25.4078 625.801 26.0158 627.017 27.2318C628.233 28.4478 628.841 29.9678 628.841 31.7918V105.664C628.841 110.426 630.209 114.378 632.945 117.52C635.782 120.661 639.328 122.232 643.585 122.232H648.145C649.766 122.232 651.134 122.84 652.249 124.056C653.363 125.272 653.921 126.792 653.921 128.616C653.921 130.541 653.211 132.112 651.793 133.328C650.475 134.442 648.753 135 646.625 135H643.585ZM607.104 65.9918C605.382 65.9918 603.963 65.4851 602.849 64.4718C601.734 63.3571 601.177 62.0398 601.177 60.5198C601.177 58.8984 601.734 57.5811 602.849 56.5678C603.963 55.4531 605.382 54.8958 607.104 54.8958H644.648C646.371 54.8958 647.79 55.4531 648.905 56.5678C650.019 57.5811 650.577 58.8984 650.577 60.5198C650.577 62.0398 650.019 63.3571 648.905 64.4718C647.79 65.4851 646.371 65.9918 644.648 65.9918H607.104Z" fill="#1E1A30"/>
<path d="M684.677 135C682.751 135 681.181 134.442 679.965 133.328C678.749 132.112 678.141 130.49 678.141 128.464V58.3918C678.141 56.3651 678.749 54.7944 679.965 53.6798C681.181 52.4638 682.751 51.8558 684.677 51.8558C686.602 51.8558 688.122 52.4638 689.237 53.6798C690.453 54.7944 691.061 56.3651 691.061 58.3918V128.464C691.061 130.49 690.453 132.112 689.237 133.328C688.122 134.442 686.602 135 684.677 135ZM684.525 36.8078C682.093 36.8078 680.015 35.9464 678.293 34.2238C676.57 32.3998 675.709 30.2718 675.709 27.8398C675.709 25.3064 676.57 23.2291 678.293 21.6078C680.117 19.9864 682.194 19.1758 684.525 19.1758C686.855 19.1758 688.882 19.9864 690.605 21.6078C692.429 23.2291 693.341 25.3064 693.341 27.8398C693.341 30.2718 692.479 32.3998 690.757 34.2238C689.034 35.9464 686.957 36.8078 684.525 36.8078Z" fill="#1E1A30"/>
<path d="M751.856 135C749.221 135 747.245 133.581 745.928 130.744L712.64 60.2158C711.931 58.7971 711.829 57.3784 712.336 55.9598C712.944 54.5411 714.059 53.4264 715.68 52.6158C717.2 51.8051 718.669 51.7038 720.088 52.3118C721.608 52.8185 722.773 53.7811 723.584 55.1998L755.2 123.752H748.664L779.976 55.1998C780.584 53.6798 781.699 52.6665 783.32 52.1598C784.941 51.6531 786.512 51.7544 788.032 52.4638C789.653 53.2744 790.717 54.4398 791.224 55.9598C791.731 57.3784 791.68 58.7464 791.072 60.0638L758.088 130.744C756.771 133.581 754.693 135 751.856 135Z" fill="#1E1A30"/>
<path d="M845.526 135.76C837.217 135.76 829.87 133.986 823.486 130.44C817.102 126.792 812.086 121.776 808.438 115.392C804.79 109.008 802.966 101.712 802.966 93.5038C802.966 85.1945 804.689 77.8985 808.134 71.6158C811.579 65.2318 816.291 60.2158 822.27 56.5678C828.35 52.9198 835.342 51.0958 843.246 51.0958C850.947 51.0958 857.635 52.8691 863.31 56.4158C869.086 59.8611 873.494 64.6744 876.534 70.8558C879.675 77.0371 881.246 84.0798 881.246 91.9838C881.246 93.7065 880.689 95.1251 879.574 96.2398C878.459 97.2531 877.041 97.7598 875.318 97.7598H811.782V87.2718H876.078L869.542 91.8318C869.643 86.2585 868.63 81.2425 866.502 76.7838C864.374 72.3251 861.334 68.8291 857.382 66.2958C853.43 63.7625 848.718 62.4958 843.246 62.4958C837.47 62.4958 832.403 63.8131 828.046 66.4478C823.79 69.0825 820.497 72.7811 818.166 77.5438C815.937 82.2051 814.822 87.5251 814.822 93.5038C814.822 99.4825 816.139 104.802 818.774 109.464C821.409 114.125 825.006 117.773 829.566 120.408C834.227 123.042 839.547 124.36 845.526 124.36C848.971 124.36 852.467 123.752 856.014 122.536C859.662 121.32 862.55 119.8 864.678 117.976C865.894 117.064 867.262 116.608 868.782 116.608C870.403 116.506 871.721 116.912 872.734 117.824C874.254 119.141 875.014 120.56 875.014 122.08C875.115 123.6 874.457 124.917 873.038 126.032C869.694 128.869 865.438 131.2 860.27 133.024C855.102 134.848 850.187 135.76 845.526 135.76Z" fill="#1E1A30"/>
<defs>
<linearGradient id="paint0_linear_42_44078" x1="142.296" y1="36.4022" x2="61.9063" y2="148.043" gradientUnits="userSpaceOnUse">
<stop stop-color="#BD00FF"/>
<stop offset="1" stop-color="#000AFF"/>
</linearGradient>
<linearGradient id="paint1_linear_42_44078" x1="157.5" y1="172" x2="-7" y2="37.0001" gradientUnits="userSpaceOnUse">
<stop stop-color="#FFB629"/>
<stop offset="1" stop-color="#FF6100"/>
</linearGradient>
</defs>
</svg>
