<svg width="171" height="172" viewBox="0 0 171 172" fill="none" xmlns="http://www.w3.org/2000/svg">
<path fill-rule="evenodd" clip-rule="evenodd" d="M37.325 0C35.1158 0 33.325 1.79085 33.325 3.99999V85.4358C58.773 93.0032 79.5131 111.48 90.1286 135.45H103.2C140.603 135.45 170.925 105.128 170.925 67.725C170.925 30.3215 140.603 0 103.2 0H37.325Z" fill="url(#paint0_linear_43_44006)"/>
<path fill-rule="evenodd" clip-rule="evenodd" d="M0 34.1001C0 31.891 1.80169 30.0943 4.00995 30.1565C78.6231 32.2573 138.701 92.8033 140.77 167.99C140.831 170.198 139.034 172 136.825 172H93.9244C91.7153 172 89.9334 170.205 89.8383 167.998C87.8187 121.135 50.5056 83.5277 4.00216 81.4773C1.79516 81.38 0 79.5984 0 77.3893V34.1001Z" fill="url(#paint1_linear_43_44006)"/>
<circle cx="25.8" cy="145.125" r="25.8" fill="#61DAFB"/>
<defs>
<linearGradient id="paint0_linear_43_44006" x1="142.258" y1="36.4022" x2="61.8687" y2="148.043" gradientUnits="userSpaceOnUse">
<stop stop-color="#BD00FF"/>
<stop offset="1" stop-color="#000AFF"/>
</linearGradient>
<linearGradient id="paint1_linear_43_44006" x1="157.462" y1="172" x2="-7.0376" y2="37.0001" gradientUnits="userSpaceOnUse">
<stop stop-color="#FFB629"/>
<stop offset="1" stop-color="#FF6100"/>
</linearGradient>
</defs>
</svg>
